{
  "source": "C:\\Users\\Peter\\Desktop\\stuff\\MIUN\\quantitative_research\\video_compression\\videos\\HEVC_CLASS_B\\Kimono_1920x1080_24.y4m",
  "output": "C:\\Users\\Peter\\Desktop\\stuff\\MIUN\\quantitative_research\\video_compression\\compressed_videos\\HEVC_CLASS_B\\av1\\12\\Kimono_1920x1080_24_av1.mkv",
  "codec": "av1",
  "ok": "Input #0, yuv4mpegpipe, from 'C:\\Users\\Peter\\Desktop\\stuff\\MIUN\\quantitative_research\\video_compression\\videos\\HEVC_CLASS_B\\Kimono_1920x1080_24.y4m':\n  Duration: 00:00:10.00, start: 0.000000, bitrate: 597198 kb/s\n  Stream #0:0: Video: rawvideo (I420 / 0x30323449), yuv420p(progressive), 1920x1080, 24 fps, 24 tbr, 24 tbn\n[out#0/matroska @ 000001cbf3d99340] Codec AVOption b:a (set bitrate (in bits/s)) has not been used for any stream. The most likely reason is either wrong type (e.g. a video option with no video streams) or that it is a private option of some decoder which was not actually used for any stream.\nStream mapping:\n  Stream #0:0 -> #0:0 (rawvideo (native) -> av1 (libsvtav1))\nPress [q] to stop, [?] for help\nSvt[info]: -------------------------------------------\nSvt[info]: SVT [version]:\tSVT-AV1 Encoder Lib v3.1.0-19-g6ecfe8ec\nSvt[info]: SVT [build]  :\tGCC 15.2.0\t 64 bit\nSvt[info]: LIB Build date: Aug 17 2025 11:37:13\nSvt[info]: -------------------------------------------\n[libsvtav1 @ 000001cbf3d9c480] Specified chroma sample location center is unsupported on the AV1 bit stream level. Usage of a container that allows passing this information - such as Matroska - is recommended.\nSvt[info]: Level of Parallelism: 5\nSvt[info]: Number of PPCS 93\nSvt[info]: [asm level on system : up to avx2]\nSvt[info]: [asm level selected : up to avx2]\nSvt[info]: -------------------------------------------\nSvt[info]: SVT [config]: main profile\ttier (auto)\tlevel (auto)\nSvt[info]: SVT [config]: width / height / fps numerator / fps denominator \t\t: 1920 / 1080 / 24 / 1\nSvt[info]: SVT [config]: bit-depth / color format \t\t\t\t\t: 8 / YUV420\nSvt[info]: SVT [config]: preset / tune / pred struct \t\t\t\t\t: 4 / PSNR / random access\nSvt[info]: SVT [config]: gop size / mini-gop size / key-frame type \t\t\t: 161 / 16 / key frame\nSvt[info]: SVT [config]: BRC mode / target bitrate (kbps)\t\t\t\t: VBR / 12000 \nSvt[info]: SVT [config]: AQ mode / Variance Boost \t\t\t\t\t: 2 / 0\nSvt[info]: SVT [config]: sharpness / luminance-based QP bias \t\t\t\t: 0 / 0\nSvt[info]: SVT [config]: QP scale compress strength \t\t\t\t\t: 0\nSvt[info]: -------------------------------------------\nOutput #0, matroska, to 'C:\\Users\\Peter\\Desktop\\stuff\\MIUN\\quantitative_research\\video_compression\\compressed_videos\\HEVC_CLASS_B\\av1\\12\\Kimono_1920x1080_24_av1.mkv':\n  Metadata:\n    encoder         : Lavf62.3.100\n  Stream #0:0: Video: av1 (AV01 / 0x31305641), yuv420p(tv, progressive), 1920x1080, q=2-31, 12000 kb/s, 24 fps, 1k tbn\n    Metadata:\n      encoder         : Lavc62.11.100 libsvtav1\n    Side data:\n      cpb: bitrate max/min/avg: 0/0/12000000 buffer size: 12000000 vbv_delay: N/A\nframe=    0 fps=0.0 q=0.0 size=       0KiB time=N/A bitrate=N/A speed=N/A elapsed=0:00:01.19    \nframe=    0 fps=0.0 q=0.0 size=       0KiB time=N/A bitrate=N/A speed=N/A elapsed=0:00:02.05    \nframe=    0 fps=0.0 q=0.0 size=       0KiB time=N/A bitrate=N/A speed=N/A elapsed=0:00:02.82    \nframe=    0 fps=0.0 q=0.0 size=       0KiB time=N/A bitrate=N/A speed=N/A elapsed=0:00:03.42    \nframe=    0 fps=0.0 q=0.0 size=       0KiB time=N/A bitrate=N/A speed=N/A elapsed=0:00:03.99    \nframe=    0 fps=0.0 q=0.0 size=       0KiB time=N/A bitrate=N/A speed=N/A elapsed=0:00:04.64    \nframe=    0 fps=0.0 q=0.0 size=       0KiB time=N/A bitrate=N/A speed=N/A elapsed=0:00:05.37    \nframe=    0 fps=0.0 q=0.0 size=       0KiB time=N/A bitrate=N/A speed=N/A elapsed=0:00:06.06    \nframe=    0 fps=0.0 q=0.0 size=       0KiB time=N/A bitrate=N/A speed=N/A elapsed=0:00:06.72    \nframe=    0 fps=0.0 q=0.0 size=       0KiB time=N/A bitrate=N/A speed=N/A elapsed=0:00:07.39    \nframe=    1 fps=0.1 q=6.0 size=       1KiB time=00:00:00.00 bitrate=N/A speed=   0x elapsed=0:00:07.93    \nframe=    1 fps=0.1 q=6.0 size=       1KiB time=00:00:00.00 bitrate=N/A speed=   0x elapsed=0:00:08.53    \nframe=    1 fps=0.1 q=6.0 size=       1KiB time=00:00:00.00 bitrate=N/A speed=   0x elapsed=0:00:09.19    \nframe=    1 fps=0.1 q=6.0 size=       1KiB time=00:00:00.00 bitrate=N/A speed=   0x elapsed=0:00:09.86    \nframe=    2 fps=0.2 q=15.0 size=       1KiB time=00:00:00.04 bitrate= 107.9kbits/s speed=0.004x elapsed=0:00:10.40    \nframe=    3 fps=0.3 q=13.0 size=       1KiB time=00:00:00.08 bitrate=  54.0kbits/s speed=0.00758x elapsed=0:00:10.99    \nframe=    6 fps=0.5 q=13.0 size=       1KiB time=00:00:00.16 bitrate=  27.0kbits/s speed=0.0143x elapsed=0:00:11.62    \nframe=    7 fps=0.6 q=12.0 size=       1KiB time=00:00:00.25 bitrate=  18.0kbits/s speed=0.0204x elapsed=0:00:12.23    \nframe=    9 fps=0.7 q=11.0 size=       1KiB time=00:00:00.29 bitrate=  15.4kbits/s speed=0.0227x elapsed=0:00:12.86    \nframe=   10 fps=0.7 q=11.0 size=       1KiB time=00:00:00.37 bitrate=  12.0kbits/s speed=0.0278x elapsed=0:00:13.48    \nframe=   11 fps=0.8 q=11.0 size=       1KiB time=00:00:00.41 bitrate=  10.8kbits/s speed=0.0297x elapsed=0:00:14.03    \nframe=   14 fps=1.0 q=11.0 size=       1KiB time=00:00:00.54 bitrate=   8.3kbits/s speed=0.0371x elapsed=0:00:14.61    \nframe=   17 fps=1.1 q=7.0 size=       1KiB time=00:00:00.66 bitrate=   6.7kbits/s speed=0.0436x elapsed=0:00:15.28    \nframe=   19 fps=1.2 q=11.0 size=       1KiB time=00:00:00.75 bitrate=   6.0kbits/s speed=0.0472x elapsed=0:00:15.89    \nframe=   21 fps=1.3 q=10.0 size=       1KiB time=00:00:00.83 bitrate=   5.4kbits/s speed=0.0505x elapsed=0:00:16.49    \nframe=   22 fps=1.3 q=12.0 size=       1KiB time=00:00:00.87 bitrate=   5.1kbits/s speed=0.0514x elapsed=0:00:17.03    \nframe=   23 fps=1.3 q=11.0 size=       1KiB time=00:00:00.91 bitrate=   4.9kbits/s speed=0.0521x elapsed=0:00:17.58    \nframe=   26 fps=1.4 q=12.0 size=       1KiB time=00:00:01.04 bitrate=   4.3kbits/s speed=0.0573x elapsed=0:00:18.19    \nframe=   27 fps=1.4 q=11.0 size=       1KiB time=00:00:01.08 bitrate=   4.2kbits/s speed=0.0576x elapsed=0:00:18.81    \nframe=   30 fps=1.5 q=13.0 size=       1KiB time=00:00:01.12 bitrate=   4.0kbits/s speed=0.0577x elapsed=0:00:19.49    \nframe=   33 fps=1.6 q=6.0 size=       1KiB time=00:00:01.29 bitrate=   3.5kbits/s speed=0.0639x elapsed=0:00:20.20    \nframe=   34 fps=1.6 q=15.0 size=       1KiB time=00:00:01.37 bitrate=   3.3kbits/s speed=0.066x elapsed=0:00:20.82    \nframe=   36 fps=1.7 q=15.0 size=       1KiB time=00:00:01.41 bitrate=   3.2kbits/s speed=0.066x elapsed=0:00:21.45    \nframe=   37 fps=1.7 q=12.0 size=       1KiB time=00:00:01.50 bitrate=   3.0kbits/s speed=0.068x elapsed=0:00:22.06    \nframe=   38 fps=1.7 q=15.0 size=       1KiB time=00:00:01.54 bitrate=   2.9kbits/s speed=0.0681x elapsed=0:00:22.64    \nframe=   40 fps=1.7 q=15.0 size=       1KiB time=00:00:01.58 bitrate=   2.8kbits/s speed=0.0681x elapsed=0:00:23.25    \nframe=   42 fps=1.8 q=14.0 size=       1KiB time=00:00:01.70 bitrate=   2.6kbits/s speed=0.0714x elapsed=0:00:23.92    \nframe=   44 fps=1.8 q=13.0 size=       1KiB time=00:00:01.75 bitrate=   2.6kbits/s speed=0.071x elapsed=0:00:24.64    \nframe=   47 fps=1.9 q=13.0 size=       1KiB time=00:00:01.91 bitrate=   2.3kbits/s speed=0.0757x elapsed=0:00:25.33    \nframe=   50 fps=1.9 q=14.0 size=       1KiB time=00:00:02.00 bitrate=   2.2kbits/s speed=0.0769x elapsed=0:00:26.01    \nframe=   51 fps=1.9 q=14.0 size=       1KiB time=00:00:02.08 bitrate=   2.2kbits/s speed=0.0782x elapsed=0:00:26.65    \nframe=   53 fps=1.9 q=13.0 size=       1KiB time=00:00:02.12 bitrate=   2.1kbits/s speed=0.078x elapsed=0:00:27.25    \nframe=   54 fps=1.9 q=14.0 size=       1KiB time=00:00:02.20 bitrate=   2.0kbits/s speed=0.0792x elapsed=0:00:27.88    \nframe=   55 fps=1.9 q=14.0 size=       1KiB time=00:00:02.25 bitrate=   2.0kbits/s speed=0.0788x elapsed=0:00:28.53    \nframe=   58 fps=2.0 q=14.0 size=       1KiB time=00:00:02.37 bitrate=   1.9kbits/s speed=0.0815x elapsed=0:00:29.14    \nframe=   60 fps=2.0 q=14.0 size=       1KiB time=00:00:02.45 bitrate=   1.8kbits/s speed=0.0825x elapsed=0:00:29.81    \nframe=   63 fps=2.1 q=13.0 size=       1KiB time=00:00:02.54 bitrate=   1.8kbits/s speed=0.0836x elapsed=0:00:30.38    \nframe=   65 fps=2.1 q=6.0 size=       1KiB time=00:00:02.66 bitrate=   1.7kbits/s speed=0.0861x elapsed=0:00:30.97    \nframe=   67 fps=2.1 q=13.0 size=       1KiB time=00:00:02.75 bitrate=   1.6kbits/s speed=0.0872x elapsed=0:00:31.52    \nframe=   69 fps=2.1 q=11.0 size=       1KiB time=00:00:02.83 bitrate=   1.6kbits/s speed=0.0883x elapsed=0:00:32.10    \nframe=   71 fps=2.2 q=13.0 size=       1KiB time=00:00:02.91 bitrate=   1.5kbits/s speed=0.0892x elapsed=0:00:32.70    \nframe=   73 fps=2.2 q=10.0 size=       1KiB time=00:00:03.00 bitrate=   1.5kbits/s speed=0.09x elapsed=0:00:33.32    \nframe=   75 fps=2.2 q=13.0 size=       1KiB time=00:00:03.08 bitrate=   1.5kbits/s speed=0.0908x elapsed=0:00:33.96    \nframe=   78 fps=2.3 q=14.0 size=    5120KiB time=00:00:03.16 bitrate=13245.2kbits/s speed=0.0915x elapsed=0:00:34.62    \nframe=   81 fps=2.3 q=6.0 size=    5120KiB time=00:00:03.33 bitrate=12582.9kbits/s speed=0.0945x elapsed=0:00:35.26    \nframe=   83 fps=2.3 q=13.0 size=    5120KiB time=00:00:03.41 bitrate=12276.0kbits/s speed=0.0953x elapsed=0:00:35.84    \nframe=   85 fps=2.3 q=11.0 size=    5120KiB time=00:00:03.50 bitrate=11983.7kbits/s speed=0.0961x elapsed=0:00:36.43    \nframe=   86 fps=2.3 q=14.0 size=    5120KiB time=00:00:03.54 bitrate=11842.7kbits/s speed=0.0957x elapsed=0:00:37.01    \nframe=   89 fps=2.4 q=11.0 size=    5120KiB time=00:00:03.66 bitrate=11439.0kbits/s speed=0.0976x elapsed=0:00:37.57    \nframe=   91 fps=2.4 q=13.0 size=    5120KiB time=00:00:03.70 bitrate=11310.5kbits/s speed=0.0969x elapsed=0:00:38.25    \nframe=   93 fps=2.4 q=11.0 size=    5120KiB time=00:00:03.83 bitrate=10941.7kbits/s speed=0.0986x elapsed=0:00:38.86    \nframe=   96 fps=2.4 q=14.0 size=    5120KiB time=00:00:03.95 bitrate=10596.1kbits/s speed= 0.1x elapsed=0:00:39.41    \nframe=   99 fps=2.5 q=12.0 size=    5120KiB time=00:00:04.08 bitrate=10271.8kbits/s speed=0.102x elapsed=0:00:39.98    \nframe=  102 fps=2.5 q=13.0 size=    5120KiB time=00:00:04.20 bitrate=9966.7kbits/s speed=0.104x elapsed=0:00:40.58    \nframe=  103 fps=2.5 q=12.0 size=    5120KiB time=00:00:04.25 bitrate=9869.0kbits/s speed=0.103x elapsed=0:00:41.11    \nframe=  106 fps=2.5 q=13.0 size=    5120KiB time=00:00:04.37 bitrate=9587.0kbits/s speed=0.105x elapsed=0:00:41.70    \nframe=  108 fps=2.6 q=12.0 size=    5120KiB time=00:00:04.45 bitrate=9407.8kbits/s speed=0.105x elapsed=0:00:42.34    \nframe=  111 fps=2.6 q=12.0 size=    5120KiB time=00:00:04.58 bitrate=9151.2kbits/s speed=0.107x elapsed=0:00:42.95    \nframe=  114 fps=2.6 q=14.0 size=    5120KiB time=00:00:04.70 bitrate=8908.3kbits/s speed=0.108x elapsed=0:00:43.57    \nframe=  116 fps=2.6 q=14.0 size=    5120KiB time=00:00:04.79 bitrate=8753.3kbits/s speed=0.109x elapsed=0:00:44.14    \nframe=  118 fps=2.6 q=12.0 size=    5120KiB time=00:00:04.87 bitrate=8603.7kbits/s speed=0.109x elapsed=0:00:44.70    \nframe=  119 fps=2.6 q=10.0 size=    5120KiB time=00:00:04.91 bitrate=8530.8kbits/s speed=0.108x elapsed=0:00:45.34    \nframe=  122 fps=2.7 q=13.0 size=    5120KiB time=00:00:05.00 bitrate=8388.6kbits/s speed=0.109x elapsed=0:00:45.95    \nframe=  123 fps=2.6 q=12.0 size=    5120KiB time=00:00:05.08 bitrate=8251.1kbits/s speed=0.109x elapsed=0:00:46.63    \nframe=  127 fps=2.7 q=12.0 size=    5120KiB time=00:00:05.20 bitrate=8053.1kbits/s speed=0.11x elapsed=0:00:47.23    \nframe=  129 fps=2.7 q=6.0 size=    5120KiB time=00:00:05.33 bitrate=7864.3kbits/s speed=0.111x elapsed=0:00:47.85    \nframe=  131 fps=2.7 q=12.0 size=    5120KiB time=00:00:05.41 bitrate=7743.3kbits/s speed=0.112x elapsed=0:00:48.48    \nframe=  133 fps=2.7 q=11.0 size=    5120KiB time=00:00:05.50 bitrate=7626.0kbits/s speed=0.112x elapsed=0:00:49.12    \nframe=  134 fps=2.7 q=13.0 size=    5120KiB time=00:00:05.54 bitrate=7568.7kbits/s speed=0.111x elapsed=0:00:49.77    \nframe=  136 fps=2.7 q=13.0 size=    5120KiB time=00:00:05.58 bitrate=7512.2kbits/s speed=0.111x elapsed=0:00:50.41    \nframe=  138 fps=2.7 q=13.0 size=    5120KiB time=00:00:05.70 bitrate=7347.7kbits/s speed=0.112x elapsed=0:00:51.04    \nframe=  140 fps=2.7 q=8.0 size=    5120KiB time=00:00:05.75 bitrate=7294.4kbits/s speed=0.111x elapsed=0:00:51.66    \nframe=  145 fps=2.8 q=4.0 size=    5120KiB time=00:00:06.00 bitrate=6990.5kbits/s speed=0.115x elapsed=0:00:52.33    \nframe=  147 fps=2.8 q=11.0 size=    5120KiB time=00:00:06.08 bitrate=6894.7kbits/s speed=0.115x elapsed=0:00:52.98    \nframe=  149 fps=2.8 q=8.0 size=    5120KiB time=00:00:06.16 bitrate=6801.6kbits/s speed=0.115x elapsed=0:00:53.67    \nframe=  153 fps=2.8 q=11.0 size=    5120KiB time=00:00:06.33 bitrate=6622.6kbits/s speed=0.117x elapsed=0:00:54.32    \nframe=  153 fps=2.8 q=11.0 size=    5120KiB time=00:00:06.33 bitrate=6622.6kbits/s speed=0.115x elapsed=0:00:54.96    \nframe=  155 fps=2.8 q=12.0 size=    5120KiB time=00:00:06.41 bitrate=6536.6kbits/s speed=0.115x elapsed=0:00:55.61    \nframe=  157 fps=2.8 q=11.0 size=    5120KiB time=00:00:06.50 bitrate=6452.8kbits/s speed=0.116x elapsed=0:00:56.27    \nframe=  174 fps=3.1 q=9.0 size=   10240KiB time=00:00:07.20 bitrate=11637.4kbits/s speed=0.127x elapsed=0:00:56.93    \nframe=  178 fps=3.1 q=5.0 size=   10240KiB time=00:00:07.37 bitrate=11374.4kbits/s speed=0.128x elapsed=0:00:57.63    \nframe=  182 fps=3.1 q=11.0 size=   10240KiB time=00:00:07.54 bitrate=11123.0kbits/s speed=0.13x elapsed=0:00:58.18    \nframe=  184 fps=3.1 q=8.0 size=   10240KiB time=00:00:07.62 bitrate=11001.5kbits/s speed=0.13x elapsed=0:00:58.78    \nframe=  186 fps=3.1 q=9.0 size=   10240KiB time=00:00:07.70 bitrate=10882.5kbits/s speed=0.13x elapsed=0:00:59.36    \nframe=  188 fps=3.1 q=10.0 size=   10240KiB time=00:00:07.79 bitrate=10766.1kbits/s speed=0.13x elapsed=0:00:59.96    \nframe=  190 fps=3.1 q=8.0 size=   10240KiB time=00:00:07.87 bitrate=10652.2kbits/s speed=0.13x elapsed=0:01:00.57    \nframe=  194 fps=3.2 q=4.0 size=   10240KiB time=00:00:08.04 bitrate=10431.4kbits/s speed=0.131x elapsed=0:01:01.16    \nframe=  196 fps=3.2 q=11.0 size=   10240KiB time=00:00:08.12 bitrate=10324.4kbits/s speed=0.132x elapsed=0:01:01.76    \nframe=  198 fps=3.2 q=10.0 size=   10240KiB time=00:00:08.20 bitrate=10219.6kbits/s speed=0.132x elapsed=0:01:02.36    \nframe=  200 fps=3.2 q=8.0 size=   10240KiB time=00:00:08.29 bitrate=10116.9kbits/s speed=0.132x elapsed=0:01:02.90    \nframe=  202 fps=3.2 q=8.0 size=   10240KiB time=00:00:08.37 bitrate=10016.2kbits/s speed=0.132x elapsed=0:01:03.51    \nframe=  202 fps=3.2 q=8.0 size=   10240KiB time=00:00:08.37 bitrate=10016.2kbits/s speed=0.131x elapsed=0:01:04.08    \nframe=  206 fps=3.2 q=8.0 size=   10240KiB time=00:00:08.45 bitrate=9917.6kbits/s speed=0.131x elapsed=0:01:04.63    \nframe=  206 fps=3.2 q=8.0 size=   10240KiB time=00:00:08.54 bitrate=9820.8kbits/s speed=0.131x elapsed=0:01:05.30    \nframe=  212 fps=3.2 q=11.0 size=   10240KiB time=00:00:08.70 bitrate=9632.9kbits/s speed=0.132x elapsed=0:01:05.91    \nframe=  214 fps=3.2 q=11.0 size=   10240KiB time=00:00:08.87 bitrate=9452.0kbits/s speed=0.133x elapsed=0:01:06.54    \nframe=  218 fps=3.2 q=9.0 size=   10240KiB time=00:00:09.04 bitrate=9277.7kbits/s speed=0.135x elapsed=0:01:07.11    \nframe=  218 fps=3.2 q=9.0 size=   10240KiB time=00:00:09.04 bitrate=9277.7kbits/s speed=0.134x elapsed=0:01:07.67    \nframe=  222 fps=3.3 q=11.0 size=   10240KiB time=00:00:09.20 bitrate=9109.8kbits/s speed=0.135x elapsed=0:01:08.26    \nframe=  230 fps=3.3 q=9.0 size=   10240KiB time=00:00:09.29 bitrate=9028.1kbits/s speed=0.135x elapsed=0:01:08.83    \n[out#0/matroska @ 000001cbf3d99340] video:15176KiB audio:0KiB subtitle:0KiB other streams:0KiB global headers:0KiB muxing overhead: 0.012097%\nframe=  240 fps=3.5 q=9.0 Lsize=   15178KiB time=00:00:09.95 bitrate=12485.9kbits/s speed=0.144x elapsed=0:01:09.13    \n",
  "seconds": 70.00868916511536,
  "probe_out": {}
}